HIERARCHY
ROOT Hips
{
  OFFSET 0.0000 94.0000 0.0000
  CHANNELS 6 Xposition Yposition Zposition Yrotation Xrotation Zrotation
  JOINT Spine1
  {
    OFFSET 0.0000 8.4838 -3.9483
    CHANNELS 3 Yrotation Xrotation Zrotation
    JOINT Spine2
    {
      OFFSET 0.0000 -7.5500 0.0000
      CHANNELS 3 Yrotation Xrotation Zrotation
      JOINT Spine3
      {
        OFFSET 0.0000 -7.5500 0.0000
        CHANNELS 3 Yrotation Xrotation Zrotation
        JOINT Spine4
        {
          OFFSET 0.0000 -12.7487 0.0000
          CHANNELS 3 Yrotation Xrotation Zrotation
          JOINT Neck
          {
            OFFSET 0.0000 -20.1503 0.0000
            CHANNELS 3 Yrotation Xrotation Zrotation
            JOINT Head
            {
              OFFSET 0.0000 -11.1009 0.0000
              CHANNELS 3 Yrotation Xrotation Zrotation
              JOINT HeadTip
              {
                OFFSET 0.0000 -16.8536 0.0000
                CHANNELS 3 Yrotation Xrotation Zrotation
                End Site
                {
                  OFFSET 0.0000 -8.4268 0.0000
                }
              }
            }
          }
          JOINT RightShoulder
          {
            OFFSET 7.0000 -12.3681 1.9038
            CHANNELS 3 Yrotation Xrotation Zrotation
            JOINT RightArm
            {
              OFFSET 0.0000 -13.6078 0.0000
              CHANNELS 3 Yrotation Xrotation Zrotation
              JOINT RightForeArm
              {
                OFFSET 0.0000 -27.1022 0.0000
                CHANNELS 3 Yrotation Xrotation Zrotation
                JOINT RightHand
                {
                  OFFSET 0.0000 -28.3000 0.0000
                  CHANNELS 3 Yrotation Xrotation Zrotation
                  JOINT RightFinger1Metacarpal
                  {
                    OFFSET -2.7849 -2.0780 0.1030
                    CHANNELS 3 Yrotation Xrotation Zrotation
                    JOINT RightFinger1Proximal
                    {
                      OFFSET 0.0000 -3.9891 0.0000
                      CHANNELS 3 Yrotation Xrotation Zrotation
                      JOINT RightFinger1Distal
                      {
                        OFFSET 0.0000 -3.0278 0.0000
                        CHANNELS 3 Yrotation Xrotation Zrotation
                        JOINT RightFinger1Tip
                        {
                          OFFSET 0.0000 -3.4590 0.0000
                          CHANNELS 3 Yrotation Xrotation Zrotation
                          End Site
                          {
                            OFFSET 0.0000 -1.7295 0.0000
                          }
                        }
                      }
                    }
                  }
                  JOINT RightFinger5Metacarpal
                  {
                    OFFSET 1.4876 -2.4879 0.1030
                    CHANNELS 3 Yrotation Xrotation Zrotation
                    JOINT RightFinger5Proximal
                    {
                      OFFSET 0.0000 -4.7463 0.0000
                      CHANNELS 3 Yrotation Xrotation Zrotation
                      JOINT RightFinger5Medial
                      {
                        OFFSET 0.0000 -3.5000 0.0000
                        CHANNELS 3 Yrotation Xrotation Zrotation
                        JOINT RightFinger5Distal
                        {
                          OFFSET 0.0000 -2.2000 0.0000
                          CHANNELS 3 Yrotation Xrotation Zrotation
                          JOINT RightFinger5Tip
                          {
                            OFFSET 0.0000 -2.2409 0.0000
                            CHANNELS 3 Yrotation Xrotation Zrotation
                            End Site
                            {
                              OFFSET 0.0000 -1.1205 0.0000
                            }
                          }
                        }
                      }
                    }
                  }
                  JOINT RightFinger4Metacarpal
                  {
                    OFFSET 0.5475 -2.7430 0.1030
                    CHANNELS 3 Yrotation Xrotation Zrotation
                    JOINT RightFinger4Proximal
                    {
                      OFFSET 0.0000 -5.0325 0.0000
                      CHANNELS 3 Yrotation Xrotation Zrotation
                      JOINT RightFinger4Medial
                      {
                        OFFSET 0.0000 -4.3000 0.0000
                        CHANNELS 3 Yrotation Xrotation Zrotation
                        JOINT RightFinger4Distal
                        {
                          OFFSET 0.0000 -2.7732 0.0000
                          CHANNELS 3 Yrotation Xrotation Zrotation
                          JOINT RightFinger4Tip
                          {
                            OFFSET 0.0000 -2.7000 0.0000
                            CHANNELS 3 Yrotation Xrotation Zrotation
                            End Site
                            {
                              OFFSET 0.0000 -1.3500 0.0000
                            }
                          }
                        }
                      }
                    }
                  }
                  JOINT RightFinger3Metacarpal
                  {
                    OFFSET -0.5447 -2.7674 0.1030
                    CHANNELS 3 Yrotation Xrotation Zrotation
                    JOINT RightFinger3Proximal
                    {
                      OFFSET 0.0000 -5.3650 0.0000
                      CHANNELS 3 Yrotation Xrotation Zrotation
                      JOINT RightFinger3Medial
                      {
                        OFFSET 0.0000 -4.7000 0.0000
                        CHANNELS 3 Yrotation Xrotation Zrotation
                        JOINT RightFinger3Distal
                        {
                          OFFSET 0.0000 -3.1000 0.0000
                          CHANNELS 3 Yrotation Xrotation Zrotation
                          JOINT RightFinger3Tip
                          {
                            OFFSET 0.0000 -2.9982 0.0000
                            CHANNELS 3 Yrotation Xrotation Zrotation
                            End Site
                            {
                              OFFSET 0.0000 -1.4991 0.0000
                            }
                          }
                        }
                      }
                    }
                  }
                  JOINT RightFinger2Metacarpal
                  {
                    OFFSET -1.6034 -2.6456 0.1030
                    CHANNELS 3 Yrotation Xrotation Zrotation
                    JOINT RightFinger2Proximal
                    {
                      OFFSET 0.0000 -5.4138 0.0000
                      CHANNELS 3 Yrotation Xrotation Zrotation
                      JOINT RightFinger2Medial
                      {
                        OFFSET 0.0000 -4.5000 0.0000
                        CHANNELS 3 Yrotation Xrotation Zrotation
                        JOINT RightFinger2Distal
                        {
                          OFFSET 0.0000 -2.7685 0.0000
                          CHANNELS 3 Yrotation Xrotation Zrotation
                          JOINT RightFinger2Tip
                          {
                            OFFSET 0.0000 -2.7132 0.0000
                            CHANNELS 3 Yrotation Xrotation Zrotation
                            End Site
                            {
                              OFFSET 0.0000 -1.3566 0.0000
                            }
                          }
                        }
                      }
                    }
                  }
                }
              }
            }
          }
          JOINT LeftShoulder
          {
            OFFSET -7.0000 -12.3681 1.9038
            CHANNELS 3 Yrotation Xrotation Zrotation
            JOINT LeftArm
            {
              OFFSET 0.0000 -13.6078 0.0000
              CHANNELS 3 Yrotation Xrotation Zrotation
              JOINT LeftForeArm
              {
                OFFSET 0.0001 -27.1022 0.0000
                CHANNELS 3 Yrotation Xrotation Zrotation
                JOINT LeftHand
                {
                  OFFSET 0.0000 -28.3000 0.0000
                  CHANNELS 3 Yrotation Xrotation Zrotation
                  JOINT LeftFinger5Metacarpal
                  {
                    OFFSET -1.4876 -2.4879 0.1030
                    CHANNELS 3 Yrotation Xrotation Zrotation
                    JOINT LeftFinger5Proximal
                    {
                      OFFSET 0.0000 -4.7463 0.0000
                      CHANNELS 3 Yrotation Xrotation Zrotation
                      JOINT LeftFinger5Medial
                      {
                        OFFSET 0.0000 -3.5000 0.0000
                        CHANNELS 3 Yrotation Xrotation Zrotation
                        JOINT LeftFinger5Distal
                        {
                          OFFSET 0.0000 -2.2000 0.0000
                          CHANNELS 3 Yrotation Xrotation Zrotation
                          JOINT LeftFinger5Tip
                          {
                            OFFSET 0.0000 -2.2409 0.0000
                            CHANNELS 3 Yrotation Xrotation Zrotation
                            End Site
                            {
                              OFFSET 0.0000 -1.1205 0.0000
                            }
                          }
                        }
                      }
                    }
                  }
                  JOINT LeftFinger4Metacarpal
                  {
                    OFFSET -0.5475 -2.7430 0.1030
                    CHANNELS 3 Yrotation Xrotation Zrotation
                    JOINT LeftFinger4Proximal
                    {
                      OFFSET 0.0000 -5.0325 0.0000
                      CHANNELS 3 Yrotation Xrotation Zrotation
                      JOINT LeftFinger4Medial
                      {
                        OFFSET 0.0000 -4.3000 0.0000
                        CHANNELS 3 Yrotation Xrotation Zrotation
                        JOINT LeftFinger4Distal
                        {
                          OFFSET 0.0000 -2.7732 0.0000
                          CHANNELS 3 Yrotation Xrotation Zrotation
                          JOINT LeftFinger4Tip
                          {
                            OFFSET 0.0000 -2.7000 0.0000
                            CHANNELS 3 Yrotation Xrotation Zrotation
                            End Site
                            {
                              OFFSET 0.0000 -1.3500 0.0000
                            }
                          }
                        }
                      }
                    }
                  }
                  JOINT LeftFinger3Metacarpal
                  {
                    OFFSET 0.5447 -2.7674 0.1030
                    CHANNELS 3 Yrotation Xrotation Zrotation
                    JOINT LeftFinger3Proximal
                    {
                      OFFSET 0.0000 -5.3650 0.0000
                      CHANNELS 3 Yrotation Xrotation Zrotation
                      JOINT LeftFinger3Medial
                      {
                        OFFSET 0.0000 -4.7000 0.0000
                        CHANNELS 3 Yrotation Xrotation Zrotation
                        JOINT LeftFinger3Distal
                        {
                          OFFSET 0.0000 -3.1000 0.0000
                          CHANNELS 3 Yrotation Xrotation Zrotation
                          JOINT LeftFinger3Tip
                          {
                            OFFSET 0.0000 -2.9982 0.0000
                            CHANNELS 3 Yrotation Xrotation Zrotation
                            End Site
                            {
                              OFFSET 0.0000 -1.4991 0.0000
                            }
                          }
                        }
                      }
                    }
                  }
                  JOINT LeftFinger2Metacarpal
                  {
                    OFFSET 1.6034 -2.6456 0.1030
                    CHANNELS 3 Yrotation Xrotation Zrotation
                    JOINT LeftFinger2Proximal
                    {
                      OFFSET 0.0000 -5.4138 0.0000
                      CHANNELS 3 Yrotation Xrotation Zrotation
                      JOINT LeftFinger2Medial
                      {
                        OFFSET 0.0000 -4.5000 0.0000
                        CHANNELS 3 Yrotation Xrotation Zrotation
                        JOINT LeftFinger2Distal
                        {
                          OFFSET 0.0000 -2.7685 0.0000
                          CHANNELS 3 Yrotation Xrotation Zrotation
                          JOINT LeftFinger2Tip
                          {
                            OFFSET 0.0000 -2.7131 0.0000
                            CHANNELS 3 Yrotation Xrotation Zrotation
                            End Site
                            {
                              OFFSET 0.0000 -1.3566 0.0000
                            }
                          }
                        }
                      }
                    }
                  }
                  JOINT LeftFinger1Metacarpal
                  {
                    OFFSET 2.7849 -2.0780 0.1030
                    CHANNELS 3 Yrotation Xrotation Zrotation
                    JOINT LeftFinger1Proximal
                    {
                      OFFSET 0.0000 -3.9891 0.0000
                      CHANNELS 3 Yrotation Xrotation Zrotation
                      JOINT LeftFinger1Distal
                      {
                        OFFSET 0.0000 -3.0278 0.0000
                        CHANNELS 3 Yrotation Xrotation Zrotation
                        JOINT LeftFinger1Tip
                        {
                          OFFSET 0.0000 -3.4590 0.0000
                          CHANNELS 3 Yrotation Xrotation Zrotation
                          End Site
                          {
                            OFFSET 0.0000 -1.7295 0.0000
                          }
                        }
                      }
                    }
                  }
                }
              }
            }
          }
        }
      }
    }
  }
  JOINT RightThigh
  {
    OFFSET -8.1000 0.0000 0.0000
    CHANNELS 3 Yrotation Xrotation Zrotation
    JOINT RightShin
    {
      OFFSET 0.0000 -43.2000 0.0000
      CHANNELS 3 Yrotation Xrotation Zrotation
      JOINT RightFoot
      {
        OFFSET 0.0000 -43.3000 -0.0626
        CHANNELS 3 Yrotation Xrotation Zrotation
        JOINT RightToe
        {
          OFFSET 0.0000 -13.1694 6.2394
          CHANNELS 3 Yrotation Xrotation Zrotation
          JOINT RightToeTip
          {
            OFFSET 0.0000 -7.4457 1.2571
            CHANNELS 3 Yrotation Xrotation Zrotation
            End Site
            {
              OFFSET 0.0000 -3.7228 0.6286
            }
          }
        }
      }
    }
  }
  JOINT LeftThigh
  {
    OFFSET 8.1000 0.0000 0.0000
    CHANNELS 3 Yrotation Xrotation Zrotation
    JOINT LeftShin
    {
      OFFSET 0.0000 -43.2000 0.0000
      CHANNELS 3 Yrotation Xrotation Zrotation
      JOINT LeftFoot
      {
        OFFSET 0.0000 -43.3000 -0.0626
        CHANNELS 3 Yrotation Xrotation Zrotation
        JOINT LeftToe
        {
          OFFSET 0.0000 -13.1694 6.2394
          CHANNELS 3 Yrotation Xrotation Zrotation
          JOINT LeftToeTip
          {
            OFFSET 0.0000 -7.4457 1.2571
            CHANNELS 3 Yrotation Xrotation Zrotation
            End Site
            {
              OFFSET 0.0000 -3.7228 0.6286
            }
          }
        }
      }
    }
  }
}
MOTION
Frames: 4
Frame Time: 0.033333
2.5672 94.2654 -3.1606 18.1351 3.4013 1.7120 0.0000 0.0001 180.0000 0.0000 0.0000 0.0000 0.0000 0.0000 0.0000 20.7837 0.0000 0.0000 0.0000 0.0000 0.0000 -49.2961 -1.1596 -11.0628 0.0000 0.0000 0.0000 0.0000 0.0000 90.0001 13.4960 -32.3524 17.8622 -1.8108 11.3003 -18.4817 0.0000 0.0000 0.0000 104.2979 28.5705 -11.4108 0.0000 -9.0000 0.0000 0.0000 -9.0000 0.0000 0.0000 0.0003 0.0000 -5.9303 -5.1186 20.5898 -10.8000 -18.0000 -9.0000 0.0000 -18.0000 0.0000 0.0000 -18.0000 0.0000 0.0000 0.0000 0.0000 -2.7258 -2.5476 10.1280 -5.4000 -18.0000 -9.0000 0.0000 -18.0000 0.0000 0.0000 -18.0000 0.0000 0.0000 0.0000 0.0000 0.0000 0.0000 0.0000 0.0000 -18.0000 -5.4000 0.0000 -18.0000 0.0000 0.0000 -18.0000 0.0000 0.0000 0.0000 0.0000 1.2310 0.2170 -9.9977 0.0000 -18.0000 1.8000 0.0000 -18.0000 0.0000 0.0000 -18.0000 0.0000 0.0000 0.0000 0.0000 0.0000 0.0000 -90.0000 -90.1469 4.9899 -2.0327 0.0520 -3.0512 -2.0014 0.0000 0.0000 0.0000 5.9303 -5.1186 -20.5898 10.8000 -18.0000 9.0000 0.0000 -18.0000 0.0000 0.0000 -18.0000 0.0000 0.0000 0.0000 0.0000 2.7258 -2.5476 -10.1280 5.4000 -18.0000 9.0000 0.0000 -18.0000 0.0000 0.0000 -18.0000 0.0000 0.0000 0.0000 0.0000 0.0000 0.0000 0.0000 0.0000 -18.0000 5.4000 0.0000 -18.0000 0.0000 0.0000 -18.0000 0.0000 0.0000 0.0000 0.0000 -1.2310 0.2170 9.9977 0.0000 -18.0000 -1.8000 0.0000 -18.0000 0.0000 0.0000 -18.0000 0.0000 0.0002 0.0000 0.0000 -104.2980 28.5705 11.4108 0.0000 -9.0000 0.0000 0.0000 -9.0000 0.0000 0.0000 0.0004 0.0000 72.9801 8.1055 8.6681 0.0032 -0.0472 6.0514 -271.8935 90.0000 0.0000 0.0000 12.1329 -0.0179 0.0000 0.0000 0.0000 -79.4732 2.6498 7.1466 -0.0058 0.0648 -23.5162 113.5328 83.9956 -156.7384 0.0000 9.8065 -1.2890 0.0000 0.0000 0.0000 
2.5135 94.3135 -3.2768 18.1536 3.3471 1.6478 0.0000 0.0001 180.0000 0.0000 0.0000 0.0000 0.0000 0.0000 0.0000 20.9924 0.0000 0.0000 0.0000 0.0000 0.0000 -49.2993 -0.9029 -10.8019 0.0000 0.0000 0.0000 0.0000 0.0000 90.0001 10.7406 -31.6613 19.5561 -1.7440 10.4706 -19.2280 0.0000 0.0000 0.0000 104.2979 28.5705 -11.4108 0.0000 -9.0000 0.0000 0.0000 -9.0000 0.0000 0.0000 0.0003 0.0000 -5.9303 -5.1186 20.5898 -10.8000 -18.0000 -9.0000 0.0000 -18.0000 0.0000 0.0000 -18.0000 0.0000 0.0000 0.0000 0.0000 -2.7258 -2.5476 10.1280 -5.4000 -18.0000 -9.0000 0.0000 -18.0000 0.0000 0.0000 -18.0000 0.0000 0.0000 0.0000 0.0000 0.0000 0.0000 0.0000 0.0000 -18.0000 -5.4000 0.0000 -18.0000 0.0000 0.0000 -18.0000 0.0000 0.0000 0.0000 0.0000 1.2310 0.2170 -9.9977 0.0000 -18.0000 1.8000 0.0000 -18.0000 0.0000 0.0000 -18.0000 0.0000 0.0000 0.0000 0.0000 0.0000 0.0000 -90.0000 -90.1475 4.5675 -2.3465 0.0390 -2.3366 -1.9574 0.0000 0.0000 0.0000 5.9303 -5.1186 -20.5898 10.8000 -18.0000 9.0000 0.0000 -18.0000 0.0000 0.0000 -18.0000 0.0000 0.0000 0.0000 0.0000 2.7258 -2.5476 -10.1280 5.4000 -18.0000 9.0000 0.0000 -18.0000 0.0000 0.0000 -18.0000 0.0000 0.0000 0.0000 0.0000 0.0000 0.0000 0.0000 0.0000 -18.0000 5.4000 0.0000 -18.0000 0.0000 0.0000 -18.0000 0.0000 0.0000 0.0000 0.0000 -1.2310 0.2170 9.9977 0.0000 -18.0000 -1.8000 0.0000 -18.0000 0.0000 0.0000 -18.0000 0.0000 0.0002 0.0000 0.0000 -104.2980 28.5705 11.4108 0.0000 -9.0000 0.0000 0.0000 -9.0000 0.0000 0.0000 0.0004 0.0000 73.0359 8.0122 8.8725 0.0036 -0.0495 5.6405 -271.6076 90.0000 0.0000 0.0000 12.1478 -0.0179 0.0000 0.0000 0.0000 -79.8387 2.7105 6.9849 -0.0054 0.0624 -23.1484 113.5621 84.0974 -156.7050 0.0000 9.7060 -1.2704 0.0000 0.0000 0.0000 
2.4795 94.3525 -3.3742 18.1547 3.2889 1.6060 0.0000 0.0001 180.0000 0.0000 0.0000 0.0000 0.0000 0.0000 0.0000 21.1682 0.0000 0.0000 0.0000 0.0000 0.0000 -49.3101 -0.6521 -10.5583 0.0000 0.0000 0.0000 0.0000 0.0000 90.0001 9.0483 -31.1777 20.6536 -1.6837 9.8422 -19.7465 0.0000 0.0000 0.0000 104.2979 28.5705 -11.4108 0.0000 -9.0000 0.0000 0.0000 -9.0000 0.0000 0.0000 0.0003 0.0000 -5.9303 -5.1186 20.5898 -10.8000 -18.0000 -9.0000 0.0000 -18.0000 0.0000 0.0000 -18.0000 0.0000 0.0000 0.0000 0.0000 -2.7258 -2.5476 10.1280 -5.4000 -18.0000 -9.0000 0.0000 -18.0000 0.0000 0.0000 -18.0000 0.0000 0.0000 0.0000 0.0000 0.0000 0.0000 0.0000 0.0000 -18.0000 -5.4000 0.0000 -18.0000 0.0000 0.0000 -18.0000 0.0000 0.0000 0.0000 0.0000 1.2310 0.2170 -9.9977 0.0000 -18.0000 1.8000 0.0000 -18.0000 0.0000 0.0000 -18.0000 0.0000 0.0000 0.0000 0.0000 0.0000 0.0000 -90.0000 -90.1433 4.1460 -2.6295 0.0282 -1.7179 -1.9194 0.0000 0.0000 0.0000 5.9303 -5.1186 -20.5898 10.8000 -18.0000 9.0000 0.0000 -18.0000 0.0000 0.0000 -18.0000 0.0000 0.0000 0.0000 0.0000 2.7258 -2.5476 -10.1280 5.4000 -18.0000 9.0000 0.0000 -18.0000 0.0000 0.0000 -18.0000 0.0000 0.0000 0.0000 0.0000 0.0000 0.0000 0.0000 0.0000 -18.0000 5.4000 0.0000 -18.0000 0.0000 0.0000 -18.0000 0.0000 0.0000 0.0000 0.0000 -1.2310 0.2170 9.9977 0.0000 -18.0000 -1.8000 0.0000 -18.0000 0.0000 0.0000 -18.0000 0.0000 0.0002 0.0000 0.0000 -104.2980 28.5705 11.4108 0.0000 -9.0000 0.0000 0.0000 -9.0000 0.0000 0.0000 0.0004 0.0000 73.1104 7.9548 9.0046 0.0038 -0.0508 5.3934 -271.4059 90.0000 0.0000 0.0000 12.1685 -0.0179 0.0000 0.0000 0.0000 -80.1069 2.7461 6.8274 -0.0050 0.0600 -22.8343 113.5905 84.1854 -156.6739 0.0000 9.6241 -1.2545 0.0000 0.0000 0.0000 
2.4643 94.3774 -3.4197 18.1522 3.2400 1.5856 0.0000 0.0001 180.0000 0.0000 0.0000 0.0000 0.0000 0.0000 0.0000 21.2734 0.0000 0.0000 0.0000 0.0000 0.0000 -49.2922 -0.3975 -10.3316 0.0000 0.0000 0.0000 0.0000 0.0000 90.0001 7.8589 -30.7776 21.4747 -1.6277 9.3068 -20.1610 0.0000 0.0000 0.0000 104.2979 28.5705 -11.4108 0.0000 -9.0000 0.0000 0.0000 -9.0000 0.0000 0.0000 0.0003 0.0000 -5.9303 -5.1186 20.5898 -10.8000 -18.0000 -9.0000 0.0000 -18.0000 0.0000 0.0000 -18.0000 0.0000 0.0000 0.0000 0.0000 -2.7258 -2.5476 10.1280 -5.4000 -18.0000 -9.0000 0.0000 -18.0000 0.0000 0.0000 -18.0000 0.0000 0.0000 0.0000 0.0000 0.0000 0.0000 0.0000 0.0000 -18.0000 -5.4000 0.0000 -18.0000 0.0000 0.0000 -18.0000 0.0000 0.0000 0.0000 0.0000 1.2310 0.2170 -9.9977 0.0000 -18.0000 1.8000 0.0000 -18.0000 0.0000 0.0000 -18.0000 0.0000 0.0000 0.0000 0.0000 0.0000 0.0000 -90.0000 -90.1332 3.7199 -2.8581 0.0173 -1.0771 -1.8828 0.0000 0.0000 0.0000 5.9303 -5.1186 -20.5898 10.8000 -18.0000 9.0000 0.0000 -18.0000 0.0000 0.0000 -18.0000 0.0000 0.0000 0.0000 0.0000 2.7258 -2.5476 -10.1280 5.4000 -18.0000 9.0000 0.0000 -18.0000 0.0000 0.0000 -18.0000 0.0000 0.0000 0.0000 0.0000 0.0000 0.0000 0.0000 0.0000 -18.0000 5.4000 0.0000 -18.0000 0.0000 0.0000 -18.0000 0.0000 0.0000 0.0000 0.0000 -1.2310 0.2170 9.9977 0.0000 -18.0000 -1.8000 0.0000 -18.0000 0.0000 0.0000 -18.0000 0.0000 0.0002 0.0000 0.0000 -104.2979 28.5705 11.4108 0.0000 -9.0000 0.0000 0.0000 -9.0000 0.0000 0.0000 0.0004 0.0000 73.1766 7.9293 9.0754 0.0038 -0.0512 5.3046 -271.2924 90.0000 0.0000 0.0000 12.2072 -0.0179 0.0000 0.0000 0.0000 -80.2802 2.7660 6.6863 -0.0047 0.0583 -22.6035 113.5742 84.2432 -156.6880 0.0000 9.5707 -1.2438 0.0000 0.0000 0.0000 
